<?xml version="1.0" encoding="UTF-8"?> <svg xmlns="http://www.w3.org/2000/svg" width="147" height="59" viewBox="0 0 147 59" fill="none"> <path fill-rule="evenodd" clip-rule="evenodd" d="M106.115 5.23362C107.068 5.57562 107.814 6.15562 107.976 7.18862C108.039 7.59108 108.023 8.00485 108.007 8.42379C108 8.61486 107.992 8.807 107.992 8.99962C104.167 7.72562 103.319 7.54162 100.36 7.97562C95.6802 8.66162 93.3352 12.0606 94.1642 16.6106C94.6742 19.4066 97.4422 21.7766 101.048 21.9746C104.266 22.1516 107.194 21.4446 109.24 18.5656C109.252 18.663 109.261 18.7503 109.269 18.8306L109.269 18.8335L109.269 18.8338C109.285 18.9887 109.298 19.1177 109.325 19.2436C109.534 20.2036 109.973 21.0166 110.926 21.4556C112.621 22.2376 114.333 22.0206 116 21.6086V18.2776C114.311 18.0326 114.163 17.8746 114.057 16.2566C114.038 15.9536 114 15.3036 114 14.9996V7.99962C114 7.99962 114.006 6.83462 113.863 6.06462C113.283 2.94862 111.183 1.25462 108.192 0.512624C105.356 -0.190376 102.488 -0.111376 99.6262 0.393624C98.2882 0.630624 96.9862 0.982624 95.6892 1.61462C95.9552 3.05162 96.2182 4.47262 96.4912 5.95462C97.9652 5.19462 99.4942 4.88062 101.075 4.75262C102.786 4.61362 104.479 4.64562 106.115 5.23362ZM104.61 11.8216C105.777 11.9666 106.893 12.3136 107.875 12.9746C108.048 14.8876 107.358 16.0476 105.596 16.7826C104.614 17.1916 103.583 17.3496 102.52 17.2496C101.417 17.1476 100.481 16.4436 100.216 15.5446C99.8702 14.3756 100.227 13.2416 101.171 12.5276C102.2 11.7496 103.397 11.6706 104.61 11.8216ZM25.5071 19.1736C27.7901 21.1466 30.5411 22.0176 33.6011 21.9996C36.7191 21.9676 39.5041 21.0806 41.7751 18.9516C44.3341 16.5526 45.1601 13.5456 44.9751 10.2076C44.7651 6.41263 43.0621 3.43163 39.6141 1.52863C36.8801 0.0206283 33.9091 -0.331372 30.8221 0.295628C28.3641 0.794628 26.2581 1.89263 24.6031 3.73763C22.7581 5.79563 22.0221 8.23163 22.0001 10.9096C21.9751 14.1376 22.9751 16.9856 25.5071 19.1736ZM28.5691 9.02364C29.2641 6.80564 31.0831 5.45864 33.6751 5.39664C35.5541 5.41864 37.1541 6.24664 38.0521 8.09764C39.1011 10.2586 39.0761 12.4406 37.7611 14.4836C36.6051 16.2776 34.7881 16.9566 32.6731 16.6356C30.5851 16.3176 29.2141 15.0986 28.5951 13.1136C28.1691 11.7466 28.1421 10.3906 28.5691 9.02364ZM80 13.0001H77V22.0001L71 21.9811V0.00012207H77V8.00012C77.4095 7.99837 77.8176 8.02222 78.2216 8.04585C79.1981 8.10293 80.1508 8.15863 81.042 7.84812C82.651 7.28712 83.777 6.18012 84.23 4.52312C84.2748 4.3595 84.3194 4.20072 84.3631 4.0449L84.3636 4.04308L84.3638 4.04226L84.3638 4.04217C84.7075 2.8164 85 1.77343 85 0.00012207H90.796C90.918 4.52012 90.04 8.50112 85.815 10.9821C85.8663 11.0798 85.9143 11.1737 85.9608 11.2646L85.963 11.2688L85.9632 11.2693C86.0663 11.4708 86.1617 11.6575 86.268 11.8371C86.8782 12.8802 87.4897 13.9224 88.1011 14.9646L88.1046 14.9705L88.1098 14.9793L88.1173 14.9922C89.238 16.9023 90.3588 18.8125 91.472 20.7281C91.6104 20.9664 91.7081 21.2299 91.8181 21.5266C91.8734 21.6757 91.9318 21.8332 92 22.0001H85.493C84.0759 19.4817 82.6343 16.9203 81.1919 14.3573L81.1811 14.338L80.49 13.1101L80 13.0001ZM67.0005 0.00012207H61.0645L60.9935 9.00612C59.5435 9.92612 58.7295 10.2661 57.3345 10.2461C55.0755 10.2131 53.0005 8.35512 53.0005 6.00012V1.00012V0.00012207H47C47 3 47.0005 6.00012 47.3045 8.20612C47.6085 10.4151 48.6135 12.3621 50.3295 13.8141C52.5485 15.6911 55.1395 16.0261 57.8605 15.6581C58.5621 15.563 59.2532 15.3858 59.9699 15.202C60.3084 15.1152 60.6527 15.0269 61.0065 14.9451V22.0001H67.0005V0.00012207ZM13 22.0001H7V6.00012H0V0.00012207H20V6.00012H13V22.0001ZM143.331 45.1647H142.004V40.2334H143.401V43.1388L145.673 40.2334H147V45.1647H145.603V42.2593L143.331 45.1647ZM146.306 38C146.296 39.0673 145.502 39.6899 144.497 39.6899C143.472 39.6899 142.688 39.0673 142.678 38H143.743C143.743 38.4348 144.025 38.7214 144.487 38.7214C144.939 38.7214 145.221 38.4348 145.231 38H146.306ZM3.15639 40.5496C2.35221 40.5496 1.68877 40.8955 1.28668 41.3896C1.38678 39.9314 2.70615 39.7123 4.29016 39.4492L4.29026 39.4492C4.45594 39.4217 4.62452 39.3937 4.7949 39.3638V38.0692C1.53799 38.6028 0 39.4329 0 42.0814C0 43.9689 0.934853 45.2932 2.7543 45.2932C4.23197 45.2932 5.37792 44.2654 5.37792 42.7534C5.37792 41.4094 4.43302 40.5496 3.15639 40.5496ZM2.74425 44.1172C1.90992 44.1172 1.40731 43.5242 1.3872 42.4569C1.65861 42.0419 2.21148 41.7059 2.79451 41.7059C3.48811 41.7059 3.98067 42.1506 3.98067 42.8522C3.98067 43.5835 3.46801 44.1172 2.74425 44.1172ZM11.2019 44.0875C11.0009 44.0875 10.8501 43.9689 10.8501 43.712V42.0419C10.8501 40.7967 9.85492 40.1049 8.45766 40.1049C7.53286 40.1049 6.95989 40.3125 6.59801 40.5002V41.6663C6.99004 41.4391 7.61328 41.2513 8.11589 41.2513C8.75923 41.2513 9.44278 41.3798 9.44278 42.1802V42.3285C9.11105 42.1605 8.67881 42.0221 7.99526 42.0221C7.01015 42.0221 6.01498 42.5261 6.01498 43.6428C6.01498 44.6508 6.789 45.2932 7.86458 45.2932C8.69891 45.2932 9.25178 44.9671 9.59356 44.6212C9.78455 45.056 10.2168 45.2536 10.7295 45.2536C11.0009 45.2536 11.3225 45.1746 11.4934 45.0461V44.0282C11.403 44.0776 11.2924 44.0875 11.2019 44.0875ZM9.44278 43.712C9.21158 44.0085 8.77933 44.216 8.30688 44.216C7.81432 44.216 7.41223 44.0282 7.41223 43.5736C7.41223 43.1487 7.81432 42.9313 8.39735 42.9313C8.79944 42.9313 9.17137 43.04 9.44278 43.2179V43.712ZM13.9897 45.1647H12.5723V40.2334H13.9897V42.0616H16.0504V40.2334H17.4677V45.1647H16.0504V43.2278H13.9897V45.1647ZM18.8549 45.1647H20.2723V43.04L22.2526 45.1647H24.0821L21.559 42.4569L23.7403 40.2334H22.0013L20.2723 42.032V40.2334H18.8549V45.1647ZM28.3089 46.4198H26.9519V43.9986H27.5952C27.9672 43.4353 28.1783 42.5953 28.1984 41.192L28.2185 40.2334H32.4404V43.9986H33.2647V46.4198H31.9277V45.1647H28.3089V46.4198ZM29.485 41.3995C29.485 42.2692 29.3946 43.1586 29.0427 43.9986H31.0532V41.3995H29.485ZM36.4443 41.3995H37.9923V45.1647H39.4097V40.2334H35.0772L35.047 41.6861C35.0169 43.1289 34.9264 44.0183 34.2328 44.0183C34.1122 44.0183 34.0318 44.0085 33.9413 43.9788V45.1153C34.0921 45.1943 34.2831 45.2042 34.4741 45.2042C36.1327 45.2042 36.3739 43.5736 36.4242 42.0913L36.4443 41.3995ZM41.941 45.1647H40.3527L41.6997 43.2871C41.0664 43.0598 40.7045 42.5656 40.7045 41.8344C40.7045 40.9845 41.2775 40.2334 42.6748 40.2334H45.3688V45.1647H43.9514V43.5341H43.097L41.941 45.1647ZM42.1521 41.9233C42.1521 42.3087 42.4335 42.5261 42.906 42.5261H43.9514V41.3205H42.906C42.4335 41.3205 42.1521 41.5379 42.1521 41.9233ZM49.3256 45.1647H50.743V41.3995H52.7434V45.1647H54.1607V40.2334H49.3256V45.1647ZM56.9667 40.8362C57.2482 40.4706 57.7709 40.1049 58.6153 40.1049C60.0025 40.1049 60.9775 41.2513 60.9775 42.704C60.9775 44.1468 60.0025 45.2932 58.6153 45.2932C57.7709 45.2932 57.2482 44.9176 56.9667 44.5619V47.1412H55.5493V40.2334H56.9667V40.8362ZM59.5702 42.704C59.5702 41.9233 59.0073 41.3205 58.2132 41.3205C57.6301 41.3205 57.1778 41.6663 56.9667 42.0616V43.3463C57.1778 43.7318 57.6301 44.0776 58.2132 44.0776C59.0073 44.0776 59.5702 43.4748 59.5702 42.704ZM64.4712 45.2932C65.2452 45.2932 65.969 45.0955 66.3811 44.7892V43.6725C65.9288 43.9294 65.3759 44.1073 64.7728 44.1073C63.9183 44.1073 63.2448 43.7812 63.0941 43.0795H66.6927V42.7139C66.6927 41.3106 65.8182 40.1049 64.3003 40.1049C62.7121 40.1049 61.6868 41.2612 61.6868 42.6941C61.6868 44.3049 62.9533 45.2932 64.4712 45.2932ZM63.0941 42.1901C63.1544 41.6268 63.5766 41.2019 64.24 41.2019C64.8934 41.2019 65.2754 41.6762 65.2955 42.1901H63.0941ZM68.6453 46.4198H67.2883V43.9986H67.9316C68.3035 43.4353 68.5146 42.5953 68.5347 41.192L68.5548 40.2334H72.7768V43.9986H73.601V46.4198H72.2641V45.1647H68.6453V46.4198ZM69.8214 41.3995C69.8214 42.2692 69.7309 43.1586 69.3791 43.9986H71.3895V41.3995H69.8214ZM74.5739 45.1647H75.9913V41.3995H77.9916V45.1647H79.409V40.2334H74.5739V45.1647ZM82.215 40.8362C82.4964 40.4706 83.0191 40.1049 83.8635 40.1049C85.2507 40.1049 86.2258 41.2513 86.2258 42.704C86.2258 44.1468 85.2507 45.2932 83.8635 45.2932C83.0191 45.2932 82.4964 44.9176 82.215 44.5619V47.1412H80.7976V40.2334H82.215V40.8362ZM84.8185 42.704C84.8185 41.9233 84.2556 41.3205 83.4614 41.3205C82.8784 41.3205 82.4261 41.6663 82.215 42.0616V43.3463C82.4261 43.7318 82.8784 44.0776 83.4614 44.0776C84.2556 44.0776 84.8185 43.4748 84.8185 42.704ZM87.2668 45.1647H88.5936L90.8654 42.2593V45.1647H92.2627V40.2334H90.9358L88.664 43.1388V40.2334H87.2668V45.1647ZM95.0649 45.1647H93.6475V40.2334H95.0649V42.0616H97.1256V40.2334H98.543V45.1647H97.1256V43.2278H95.0649V45.1647ZM99.9302 45.1647H101.257L103.529 42.2593V45.1647H104.926V40.2334H103.599L101.327 43.1388V40.2334H99.9302V45.1647ZM107.648 45.1647H106.311V40.2334H107.708L109.166 42.0715L110.633 40.2334H112.031V45.1647H110.694V42.1209L109.447 43.6527H108.884L107.648 42.1209V45.1647ZM118.193 44.0875C117.992 44.0875 117.841 43.9689 117.841 43.712V42.0419C117.841 40.7967 116.846 40.1049 115.449 40.1049C114.524 40.1049 113.951 40.3125 113.589 40.5002V41.6663C113.981 41.4391 114.604 41.2513 115.107 41.2513C115.75 41.2513 116.434 41.3798 116.434 42.1802V42.3285C116.102 42.1605 115.67 42.0221 114.986 42.0221C114.001 42.0221 113.006 42.5261 113.006 43.6428C113.006 44.6508 113.78 45.2932 114.856 45.2932C115.69 45.2932 116.243 44.9671 116.585 44.6212C116.776 45.056 117.208 45.2536 117.72 45.2536C117.992 45.2536 118.314 45.1746 118.484 45.0461V44.0282C118.394 44.0776 118.283 44.0875 118.193 44.0875ZM116.434 43.712C116.203 44.0085 115.77 44.216 115.298 44.216C114.805 44.216 114.403 44.0282 114.403 43.5736C114.403 43.1487 114.805 42.9313 115.388 42.9313C115.79 42.9313 116.162 43.04 116.434 43.2179V43.712ZM121.692 45.1647H120.275V41.3995H118.706V40.2334H123.28V41.3995H121.692V45.1647ZM126.571 45.2932C127.345 45.2932 128.069 45.0955 128.481 44.7892V43.6725C128.029 43.9294 127.476 44.1073 126.873 44.1073C126.018 44.1073 125.345 43.7812 125.194 43.0795H128.792V42.7139C128.792 41.3106 127.918 40.1049 126.4 40.1049C124.812 40.1049 123.787 41.2612 123.787 42.6941C123.787 44.3049 125.053 45.2932 126.571 45.2932ZM125.194 42.1901C125.254 41.6268 125.676 41.2019 126.34 41.2019C126.993 41.2019 127.375 41.6762 127.395 42.1901H125.194ZM133.439 41.3995H131.891L131.871 42.0913C131.821 43.5736 131.579 45.2042 129.921 45.2042C129.73 45.2042 129.539 45.1943 129.388 45.1153V43.9788C129.478 44.0085 129.559 44.0183 129.68 44.0183C130.373 44.0183 130.464 43.1289 130.494 41.6861L130.524 40.2334H134.856V45.1647H133.439V41.3995ZM138.694 45.2932C139.468 45.2932 140.192 45.0955 140.604 44.7892V43.6725C140.152 43.9294 139.599 44.1073 138.996 44.1073C138.142 44.1073 137.468 43.7812 137.317 43.0795H140.916V42.7139C140.916 41.3106 140.041 40.1049 138.524 40.1049C136.935 40.1049 135.91 41.2612 135.91 42.6941C135.91 44.3049 137.177 45.2932 138.694 45.2932ZM137.317 42.1901C137.378 41.6268 137.8 41.2019 138.463 41.2019C139.117 41.2019 139.499 41.6762 139.519 42.1901H137.317ZM0.301566 57.0235H1.62845L3.90025 54.1181V57.0235H5.2975V52.0922H3.97062L1.69882 54.9976V52.0922H0.301566V57.0235ZM10.6717 57.0235H9.2543V52.0922H14.0894V57.0235H12.672V53.2584H10.6717V57.0235ZM18.5439 51.9638C17.6996 51.9638 17.1768 52.3294 16.8954 52.6951V52.0922H15.478V59H16.8954V56.4207C17.1768 56.7765 17.6996 57.152 18.5439 57.152C19.9311 57.152 20.9062 56.0056 20.9062 54.5628C20.9062 53.1101 19.9311 51.9638 18.5439 51.9638ZM18.1418 53.1793C18.936 53.1793 19.4989 53.7821 19.4989 54.5628C19.4989 55.3336 18.936 55.9365 18.1418 55.9365C17.5588 55.9365 17.1065 55.5906 16.8954 55.2052V53.9205C17.1065 53.5252 17.5588 53.1793 18.1418 53.1793ZM26.3098 56.648C25.8977 56.9543 25.1739 57.152 24.3999 57.152C22.882 57.152 21.6154 56.1638 21.6154 54.5529C21.6154 53.12 22.6408 51.9638 24.229 51.9638C25.7469 51.9638 26.6214 53.1694 26.6214 54.5727V54.9383H23.0227C23.1735 55.64 23.847 55.9661 24.7015 55.9661C25.3046 55.9661 25.8575 55.7882 26.3098 55.5313V56.648ZM24.1687 53.0607C23.5052 53.0607 23.083 53.4856 23.0227 54.0489H25.2242C25.2041 53.5351 24.8221 53.0607 24.1687 53.0607ZM27.2169 58.2786H28.574V57.0235H32.1928V58.2786H33.5297V55.8574H32.7054V52.0922H28.4835L28.4634 53.0508C28.4433 54.4541 28.2322 55.2941 27.8603 55.8574H27.2169V58.2786ZM29.3078 55.8574C29.6596 55.0174 29.7501 54.128 29.7501 53.2584H31.3182V55.8574H29.3078ZM35.9199 57.0235H34.5026V52.0922H39.3377V57.0235H37.9203V53.2584H35.9199V57.0235ZM43.7922 51.9638C42.9478 51.9638 42.4251 52.3294 42.1436 52.6951V52.0922H40.7263V59H42.1436V56.4207C42.4251 56.7765 42.9478 57.152 43.7922 57.152C45.1794 57.152 46.1545 56.0056 46.1545 54.5628C46.1545 53.1101 45.1794 51.9638 43.7922 51.9638ZM43.3901 53.1793C44.1842 53.1793 44.7472 53.7821 44.7472 54.5628C44.7472 55.3336 44.1842 55.9365 43.3901 55.9365C42.8071 55.9365 42.3547 55.5906 42.1436 55.2052V53.9205C42.3547 53.5252 42.8071 53.1793 43.3901 53.1793ZM48.5223 57.0235H47.1954V52.0922H48.5927V54.9976L50.8645 52.0922H52.1914V57.0235H50.7941V54.1181L48.5223 57.0235ZM53.1339 57.0235H54.7222L55.8782 55.3929H56.7326V57.0235H58.15V52.0922H55.456C54.0587 52.0922 53.4857 52.8433 53.4857 53.6932C53.4857 54.4245 53.8476 54.9186 54.4809 55.1459L53.1339 57.0235ZM55.6872 54.3849C55.2147 54.3849 54.9333 54.1675 54.9333 53.7821C54.9333 53.3967 55.2147 53.1793 55.6872 53.1793H56.7326V54.3849H55.6872ZM61.9776 57.0235H60.5602V53.2584H58.9921V52.0922H63.5658V53.2584H61.9776V57.0235ZM64.4039 57.0235H65.7308L68.0026 54.1181V57.0235H69.3998V52.0922H68.073L65.8012 54.9976V52.0922H64.4039V57.0235ZM72.1116 57.0235H70.7847V52.0922H72.182V54.9976L74.4537 52.0922H75.7806V57.0235H74.3834V54.1181L72.1116 57.0235ZM75.087 49.8588C75.077 50.9261 74.2829 51.5487 73.2776 51.5487C72.2523 51.5487 71.4682 50.9261 71.4582 49.8588H72.5237C72.5237 50.2936 72.8052 50.5802 73.2676 50.5802C73.7199 50.5802 74.0014 50.2936 74.0115 49.8588H75.087Z" fill="#333333"></path> </svg> 