<?xml version="1.0" encoding="UTF-8"?> <svg xmlns="http://www.w3.org/2000/svg" width="367" height="99" viewBox="0 0 367 99" fill="none"> <path d="M101.82 90.13C101.862 90.7851 101.755 91.4411 101.507 92.0489C101.26 92.6568 100.878 93.2008 100.39 93.64C99.2491 94.5189 97.8273 94.9526 96.39 94.86H90.8V78.45H100.48V80.08H92.75V85.38H96.4C100.013 85.38 101.82 86.9333 101.82 90.04V90.13ZM96.38 93.3C98.7067 93.3 99.87 92.2433 99.87 90.13V90C99.87 87.9333 98.6467 86.9 96.2 86.9H92.75V93.3H96.38Z" fill="black"></path> <path d="M104.52 82.86H106.42V84.86C106.822 84.2003 107.391 83.6587 108.07 83.29C108.8 82.8605 109.633 82.636 110.48 82.64C111.215 82.6146 111.947 82.7469 112.627 83.0281C113.306 83.3092 113.918 83.7327 114.42 84.27C115.507 85.4787 116.074 87.0663 116 88.69V88.87C116.077 90.5013 115.542 92.1027 114.5 93.36C114.005 93.9279 113.388 94.3767 112.696 94.6728C112.003 94.9689 111.253 95.1047 110.5 95.07C109.688 95.1174 108.879 94.9388 108.162 94.554C107.445 94.1692 106.849 93.5932 106.44 92.89V99H104.54L104.52 82.86ZM110.3 93.48C110.808 93.5088 111.316 93.42 111.784 93.2206C112.253 93.0211 112.669 92.7164 113 92.33C113.703 91.3665 114.056 90.1915 114 89V88.82C114.091 87.6152 113.735 86.4192 113 85.46C112.674 85.0789 112.266 84.7753 111.808 84.5712C111.35 84.3671 110.852 84.2676 110.35 84.28C109.823 84.2611 109.298 84.3547 108.81 84.5548C108.322 84.7548 107.882 85.0566 107.52 85.44C106.734 86.3838 106.344 87.5949 106.43 88.82V89C106.344 90.2187 106.727 91.4242 107.5 92.37C107.865 92.7403 108.304 93.0302 108.788 93.2213C109.272 93.4125 109.79 93.5006 110.31 93.48H110.3Z" fill="black"></path> <path d="M123.78 95.07C122.996 95.0931 122.216 94.951 121.491 94.6529C120.766 94.3549 120.111 93.9075 119.57 93.34C119.019 92.7622 118.589 92.0814 118.302 91.3366C118.015 90.5918 117.879 89.7978 117.9 89V88.82C117.869 88.0115 118 87.2049 118.285 86.4477C118.57 85.6904 119.004 84.9977 119.56 84.41C120.694 83.3086 122.214 82.6925 123.795 82.6925C125.376 82.6925 126.895 83.3086 128.03 84.41C128.587 84.9927 129.022 85.6817 129.307 86.436C129.592 87.1903 129.722 87.9943 129.69 88.8V88.98C129.717 89.7862 129.581 90.5896 129.291 91.3422C129.001 92.0948 128.562 92.781 128 93.36C127.452 93.9202 126.795 94.3613 126.068 94.6555C125.342 94.9498 124.563 95.0909 123.78 95.07ZM123.78 93.49C124.319 93.5123 124.857 93.4124 125.352 93.1977C125.847 92.9829 126.287 92.659 126.64 92.25C127.383 91.3341 127.767 90.1787 127.72 89V88.8C127.782 87.5966 127.402 86.412 126.65 85.47C126.282 85.0786 125.839 84.7667 125.346 84.5534C124.853 84.3402 124.322 84.2301 123.785 84.2301C123.248 84.2301 122.717 84.3402 122.224 84.5534C121.731 84.7667 121.287 85.0786 120.92 85.47C120.178 86.405 119.801 87.5779 119.86 88.77V89C119.782 90.1849 120.138 91.3575 120.86 92.3C121.227 92.7085 121.683 93.0273 122.193 93.2319C122.702 93.4364 123.252 93.5213 123.8 93.48L123.78 93.49Z" fill="black"></path> <path d="M134.28 88.73V94.86H132.38V82.86H134.28V88.46L139.28 82.86H141.51L136.37 88.5L141.95 94.86H139.63L134.28 88.73Z" fill="black"></path> <path d="M148.33 95.07C147.553 95.0985 146.779 94.9637 146.057 94.6744C145.335 94.385 144.682 93.9474 144.14 93.39C143.593 92.8018 143.168 92.111 142.89 91.3574C142.612 90.6038 142.486 89.8025 142.52 89V88.8C142.453 87.1763 143.016 85.5894 144.09 84.37C144.595 83.8133 145.213 83.3716 145.903 83.0749C146.593 82.7781 147.339 82.6332 148.09 82.65C148.808 82.6216 149.524 82.738 150.196 82.9923C150.867 83.2465 151.481 83.6335 152 84.13C152.553 84.7315 152.977 85.4407 153.243 86.2133C153.51 86.9859 153.614 87.8052 153.55 88.62V89.24H144.55C144.643 92.0733 145.927 93.49 148.4 93.49C150.28 93.49 151.343 92.7933 151.59 91.4H153.49C153.413 91.9463 153.225 92.4708 152.935 92.9406C152.646 93.4105 152.263 93.8154 151.81 94.13C150.777 94.7987 149.56 95.1274 148.33 95.07ZM151.59 87.7C151.423 85.3867 150.277 84.23 148.15 84.23C147.71 84.2152 147.272 84.2891 146.862 84.4471C146.451 84.6052 146.076 84.8442 145.76 85.15C145.094 85.846 144.675 86.7422 144.57 87.7H151.59Z" fill="black"></path> <path d="M156.29 82.86H158.19V84.86C158.592 84.2003 159.161 83.6587 159.84 83.29C160.57 82.8605 161.403 82.636 162.25 82.64C162.985 82.6146 163.717 82.7469 164.397 83.0281C165.076 83.3092 165.688 83.7327 166.19 84.27C167.256 85.484 167.805 87.0666 167.72 88.68V88.86C167.797 90.4913 167.262 92.0926 166.22 93.35C165.725 93.9179 165.108 94.3667 164.416 94.6628C163.723 94.9589 162.972 95.0947 162.22 95.06C161.408 95.1074 160.599 94.9288 159.882 94.544C159.165 94.1592 158.569 93.5831 158.16 92.88V99H156.26L156.29 82.86ZM162.07 93.48C162.584 93.5123 163.098 93.4243 163.572 93.2229C164.046 93.0215 164.467 92.7124 164.8 92.32C165.489 91.3406 165.821 90.1546 165.74 88.96V88.78C165.831 87.5752 165.475 86.3792 164.74 85.42C164.414 85.0389 164.006 84.7353 163.548 84.5312C163.09 84.3271 162.592 84.2276 162.09 84.24C161.563 84.2211 161.038 84.3147 160.55 84.5148C160.062 84.7148 159.622 85.0166 159.26 85.4C158.474 86.3438 158.084 87.5549 158.17 88.78V89C158.084 90.2187 158.467 91.4242 159.24 92.37C159.608 92.7428 160.05 93.0343 160.537 93.2255C161.025 93.4167 161.547 93.5034 162.07 93.48Z" fill="black"></path> <path d="M35.52 1.40779e-06C28.4928 0.0019795 21.6241 2.08771 15.7823 5.99344C9.94051 9.89917 5.3881 15.4495 2.70075 21.9425C0.0133963 28.4355 -0.688205 35.5796 0.684667 42.4714C2.05754 49.3631 5.44323 55.693 10.4136 60.6606C15.3839 65.6281 21.7157 69.0103 28.6083 70.3792C35.5008 71.7482 42.6445 71.0426 49.136 68.3516C55.6275 65.6606 61.1752 61.1051 65.0777 55.2611C68.9801 49.4171 71.062 42.5472 71.06 35.52C71.0587 30.8541 70.1384 26.2342 68.3516 21.924C66.5649 17.6138 63.9466 13.6978 60.6465 10.3994C57.3463 7.10109 53.4287 4.48507 49.1175 2.70073C44.8063 0.916398 40.1859 -0.001312 35.52 1.40779e-06ZM30.52 50.64L27.87 58.4C23.0648 56.7567 18.8937 53.6522 15.9403 49.521C12.987 45.3897 11.3992 40.4384 11.3992 35.36C11.3992 30.2816 12.987 25.3303 15.9403 21.199C18.8937 17.0678 23.0648 13.9633 27.87 12.32L30.48 20.09C27.3009 21.1847 24.5427 23.2444 22.5902 25.9818C20.6377 28.7192 19.5883 31.9977 19.5883 35.36C19.5883 38.7223 20.6377 42.0008 22.5902 44.7382C24.5427 47.4756 27.3009 49.5353 30.48 50.63L30.52 50.64ZM42.7 58.55L40.25 50.73C43.4857 49.6859 46.3093 47.6473 48.3185 44.9046C50.3278 42.1619 51.4202 38.855 51.4402 35.4551C51.4601 32.0552 50.4066 28.7358 48.4296 25.9697C46.4527 23.2036 43.6532 21.132 40.43 20.05L43 12.27C47.8767 13.8884 52.1162 17.0087 55.1112 21.1838C58.1062 25.359 59.703 30.3749 59.673 35.513C59.6431 40.6512 57.9878 45.6481 54.9443 49.788C51.9008 53.928 47.6253 56.9986 42.73 58.56" fill="#00BEF0"></path> <path d="M361.09 41.88L365 46.6C363.291 48.3561 361.239 49.7417 358.972 50.6707C356.704 51.5997 354.27 52.0522 351.82 52C348.672 52.1327 345.537 51.5086 342.68 50.18C337.44 47.58 334.8 42.3 334.8 35.89C334.8 26.15 341.38 19.04 351.09 19.04C361.83 19.04 367.09 27.1 366.38 37.58H341.78C341.846 38.8733 342.222 40.1318 342.876 41.2492C343.531 42.3666 344.444 43.3101 345.54 44C347.577 45.1797 349.909 45.7522 352.26 45.65C353.916 45.653 355.554 45.3164 357.075 44.6611C358.595 44.0058 359.965 43.0457 361.1 41.84L361.09 41.88ZM341.86 32H359.23C358.8 28.19 355.68 25 350.65 25C348.59 24.925 346.572 25.5895 344.96 26.8734C343.348 28.1573 342.248 29.9759 341.86 32ZM176.75 51.19H185.63L171.68 35L185.41 19.8H176.66L166.18 32H163.1V19.83H156.3V51.19H163.1V38.72H166.22L176.75 51.19ZM205.64 25.46C199.97 25.46 196.2 29.88 196.2 35.46C196.2 41.04 199.97 45.46 205.64 45.46C211.31 45.46 215.04 41.13 215.04 35.46C215.04 29.79 211.53 25.46 205.64 25.46ZM206.81 19.05C215.64 19.05 222.14 25.98 222.14 35.51C222.14 45.04 215.69 52 206.81 52C204.924 52.0824 203.042 51.7579 201.293 51.0488C199.543 50.3396 197.967 49.2623 196.67 47.89V64.23H189.83V19.83H196.5V23.6C197.746 22.0922 199.327 20.8958 201.117 20.106C202.907 19.3161 204.856 18.9546 206.81 19.05ZM296.08 19.83H268V26.11H278.61V51.19H285.45V26.11H296.06L296.08 19.83ZM151.59 19.83H123.52V26.11H134.13V51.19H141V26.11H151.61L151.59 19.83ZM115.2 35.51C115.2 29.66 111.04 25.33 105.41 25.33C99.7801 25.33 95.6201 29.53 95.6201 35.51C95.6201 41.49 99.6901 45.73 105.41 45.73C111.13 45.73 115.2 41.44 115.2 35.51ZM88.6101 35.51C88.6101 26.11 95.8901 19.05 105.42 19.05C114.95 19.05 122.23 26.11 122.23 35.51C122.23 44.91 114.94 52 105.41 52C95.8801 52 88.6001 44.91 88.6001 35.51H88.6101ZM329.26 19.83V51.19H322.54V31L306.13 51.19H300.76V19.83H307.47V40L323.93 19.82L329.26 19.83ZM263.33 51.19H256.53V19.83H263.33V51.19ZM245.92 40.49C245.953 39.8672 245.857 39.2442 245.638 38.6603C245.419 38.0763 245.081 37.544 244.647 37.0969C244.212 36.6498 243.689 36.2976 243.111 36.0623C242.534 35.8271 241.914 35.714 241.29 35.73H234.4V45.39H241.29C241.921 45.3925 242.546 45.2656 243.126 45.0174C243.706 44.7691 244.229 44.4047 244.663 43.9465C245.097 43.4883 245.432 42.9461 245.648 42.3534C245.864 41.7607 245.957 41.1299 245.92 40.5V40.49ZM252.68 40.5C252.68 46.78 248.13 51.2 241.5 51.2H227.69V19.83H234.45V30H242.12C248.62 30 252.69 34.2 252.69 40.53" fill="black"></path> </svg> 